<svg width="21" height="18" viewBox="0 0 21 18" fill="none" xmlns="http://www.w3.org/2000/svg">
<path d="M0 18V3C0 2.16667 0.291667 1.45833 0.875 0.875C1.45833 0.291667 2.16667 0 3 0H7C7.83333 0 8.54167 0.291667 9.125 0.875C9.70833 1.45833 10 2.16667 10 3V18H0ZM7 12H8V7H7V12ZM2 16H8V14H7C6.45 14 5.97917 13.8042 5.5875 13.4125C5.19583 13.0208 5 12.55 5 12V7C5 6.45 5.19583 5.97917 5.5875 5.5875C5.97917 5.19583 6.45 5 7 5H8V3C8 2.71667 7.90417 2.47917 7.7125 2.2875C7.52083 2.09583 7.28333 2 7 2H3C2.71667 2 2.47917 2.09583 2.2875 2.2875C2.09583 2.47917 2 2.71667 2 3V16ZM14.2 10.575C13.7667 10.575 13.3417 10.5167 12.925 10.4C12.5083 10.2833 12.1 10.1333 11.7 9.95L12.325 8.05C12.6583 8.2 12.9875 8.325 13.3125 8.425C13.6375 8.525 13.9417 8.575 14.225 8.575C14.425 8.575 14.625 8.54167 14.825 8.475C15.025 8.40833 15.2333 8.30833 15.45 8.175C15.85 7.89167 16.25 7.7 16.65 7.6C17.05 7.5 17.4333 7.45 17.8 7.45C18.2167 7.45 18.6458 7.50417 19.0875 7.6125C19.5292 7.72083 19.9417 7.86667 20.325 8.05L19.7 9.95C19.3167 9.81667 18.9625 9.7 18.6375 9.6C18.3125 9.5 18.0333 9.45 17.8 9.45C17.6 9.45 17.3792 9.4875 17.1375 9.5625C16.8958 9.6375 16.6417 9.76667 16.375 9.95C16.025 10.1833 15.6708 10.3458 15.3125 10.4375C14.9542 10.5292 14.5833 10.575 14.2 10.575ZM14.225 6.675C13.7917 6.675 13.3583 6.61667 12.925 6.5C12.4917 6.38333 12.0833 6.23333 11.7 6.05L12.325 4.15C12.7583 4.33333 13.125 4.46667 13.425 4.55C13.725 4.63333 13.9917 4.675 14.225 4.675C14.425 4.675 14.625 4.64583 14.825 4.5875C15.025 4.52917 15.2333 4.425 15.45 4.275C15.8667 3.99167 16.2708 3.8 16.6625 3.7C17.0542 3.6 17.4333 3.55 17.8 3.55C18.2167 3.55 18.6333 3.60417 19.05 3.7125C19.4667 3.82083 19.8917 3.96667 20.325 4.15L19.7 6.05C19.2667 5.9 18.9 5.77917 18.6 5.6875C18.3 5.59583 18.0333 5.55 17.8 5.55C17.5833 5.55 17.3625 5.58333 17.1375 5.65C16.9125 5.71667 16.6583 5.85 16.375 6.05C16.075 6.26667 15.7375 6.425 15.3625 6.525C14.9875 6.625 14.6083 6.675 14.225 6.675ZM14.225 14.475C13.7917 14.475 13.3625 14.4167 12.9375 14.3C12.5125 14.1833 12.1 14.0333 11.7 13.85L12.325 11.95C12.6917 12.1167 13.0333 12.2458 13.35 12.3375C13.6667 12.4292 13.9583 12.475 14.225 12.475C14.425 12.475 14.625 12.4458 14.825 12.3875C15.025 12.3292 15.2333 12.225 15.45 12.075C15.8333 11.8083 16.2417 11.6208 16.675 11.5125C17.1083 11.4042 17.4917 11.35 17.825 11.35C18.2417 11.35 18.6667 11.4083 19.1 11.525C19.5333 11.6417 19.9417 11.7833 20.325 11.95L19.7 13.85C19.2667 13.7 18.8958 13.5792 18.5875 13.4875C18.2792 13.3958 18.0167 13.35 17.8 13.35C17.5667 13.35 17.3292 13.3875 17.0875 13.4625C16.8458 13.5375 16.6083 13.6667 16.375 13.85C16.0917 14.05 15.7625 14.2042 15.3875 14.3125C15.0125 14.4208 14.625 14.475 14.225 14.475ZM8 16V14V12V7V5V3C8 2.71667 8 2.64583 8 2.7875C8 2.92917 8 3 8 3C8 3 8 2.92917 8 2.7875C8 2.64583 8 2.71667 8 3V16Z" fill="#005E97"/>
</svg>
