<svg width="23" height="25" viewBox="0 0 23 25" fill="none" xmlns="http://www.w3.org/2000/svg">
<path d="M16.25 7.5C15.7292 7.5 15.2865 7.31771 14.9219 6.95312C14.5573 6.58854 14.375 6.14583 14.375 5.625C14.375 5.27083 14.5521 4.80208 14.9062 4.21875C15.2604 3.63542 15.7083 3.0625 16.25 2.5C16.7917 3.0625 17.2396 3.63542 17.5938 4.21875C17.9479 4.80208 18.125 5.27083 18.125 5.625C18.125 6.14583 17.9427 6.58854 17.5781 6.95312C17.2135 7.31771 16.7708 7.5 16.25 7.5ZM19.375 16.25C18.5 16.25 17.7604 15.9479 17.1562 15.3438C16.5521 14.7396 16.25 14 16.25 13.125C16.25 12.3958 16.5729 11.4948 17.2188 10.4219C17.8646 9.34896 18.5833 8.375 19.375 7.5C20.1667 8.375 20.8854 9.34896 21.5312 10.4219C22.1771 11.4948 22.5 12.3958 22.5 13.125C22.5 14 22.1979 14.7396 21.5938 15.3438C20.9896 15.9479 20.25 16.25 19.375 16.25ZM6.25 20H8.75V17.5H11.25V15H8.75V12.5H6.25V15H3.75V17.5H6.25V20ZM2.5 25C1.8125 25 1.22396 24.7552 0.734375 24.2656C0.244792 23.776 0 23.1875 0 22.5V12.5C0 10.625 0.59375 9 1.78125 7.625C2.96875 6.25 4.45833 5.41667 6.25 5.125V2.5H3.75V0H11.25C11.9583 0 12.625 0.109375 13.25 0.328125C13.875 0.546875 14.4583 0.854167 15 1.25L13.1875 3.0625C12.8958 2.89583 12.5885 2.76042 12.2656 2.65625C11.9427 2.55208 11.6042 2.5 11.25 2.5H8.75V5.125C10.5417 5.41667 12.0312 6.25 13.2188 7.625C14.4062 9 15 10.625 15 12.5V22.5C15 23.1875 14.7552 23.776 14.2656 24.2656C13.776 24.7552 13.1875 25 12.5 25H2.5ZM2.5 22.5H12.5V12.5C12.5 11.125 12.0104 9.94792 11.0312 8.96875C10.0521 7.98958 8.875 7.5 7.5 7.5C6.125 7.5 4.94792 7.98958 3.96875 8.96875C2.98958 9.94792 2.5 11.125 2.5 12.5V22.5ZM2.5 22.5C2.5 22.5 2.98958 22.5 3.96875 22.5C4.94792 22.5 6.125 22.5 7.5 22.5C8.875 22.5 10.0521 22.5 11.0312 22.5C12.0104 22.5 12.5 22.5 12.5 22.5H2.5Z" fill="#005E97"/>
</svg>
