<svg width="30" height="30" viewBox="0 0 30 30" fill="none" xmlns="http://www.w3.org/2000/svg">
<path d="M29.1 18.375L18.375 29.1C18.075 29.4 17.7375 29.625 17.3625 29.775C16.9875 29.925 16.6125 30 16.2375 30C15.8625 30 15.4875 29.925 15.1125 29.775C14.7375 29.625 14.4 29.4 14.1 29.1L0.8625 15.8625C0.5875 15.5875 0.375 15.2688 0.225 14.9062C0.075 14.5437 0 14.1625 0 13.7625V3C0 2.175 0.29375 1.46875 0.88125 0.88125C1.46875 0.29375 2.175 0 3 0H13.7625C14.1625 0 14.55 0.08125 14.925 0.24375C15.3 0.40625 15.625 0.625 15.9 0.9L29.1 14.1375C29.4 14.4375 29.6187 14.775 29.7563 15.15C29.8938 15.525 29.9625 15.9 29.9625 16.275C29.9625 16.65 29.8938 17.0188 29.7563 17.3813C29.6187 17.7437 29.4 18.075 29.1 18.375ZM16.2375 27L26.9625 16.275L13.725 3H3V13.725L16.2375 27ZM6.75 9C7.375 9 7.90625 8.78125 8.34375 8.34375C8.78125 7.90625 9 7.375 9 6.75C9 6.125 8.78125 5.59375 8.34375 5.15625C7.90625 4.71875 7.375 4.5 6.75 4.5C6.125 4.5 5.59375 4.71875 5.15625 5.15625C4.71875 5.59375 4.5 6.125 4.5 6.75C4.5 7.375 4.71875 7.90625 5.15625 8.34375C5.59375 8.78125 6.125 9 6.75 9Z" fill="#005E97"/>
</svg>
