<svg width="40" height="40" viewBox="0 0 40 40" fill="none" xmlns="http://www.w3.org/2000/svg">
<rect width="40" height="40" rx="20" fill="#68AED9" fill-opacity="0.66"/>
<path d="M20.0002 20.0003C20.4585 20.0003 20.8509 19.8371 21.1772 19.5107C21.5036 19.1844 21.6668 18.792 21.6668 18.3337C21.6668 17.8753 21.5036 17.483 21.1772 17.1566C20.8509 16.8302 20.4585 16.667 20.0002 16.667C19.5418 16.667 19.1495 16.8302 18.8231 17.1566C18.4967 17.483 18.3335 17.8753 18.3335 18.3337C18.3335 18.792 18.4967 19.1844 18.8231 19.5107C19.1495 19.8371 19.5418 20.0003 20.0002 20.0003ZM20.0002 26.1253C21.6946 24.5698 22.9516 23.1566 23.771 21.8857C24.5904 20.6149 25.0002 19.4864 25.0002 18.5003C25.0002 16.9864 24.5175 15.7469 23.5522 14.7816C22.587 13.8163 21.4029 13.3337 20.0002 13.3337C18.5974 13.3337 17.4134 13.8163 16.4481 14.7816C15.4828 15.7469 15.0002 16.9864 15.0002 18.5003C15.0002 19.4864 15.4099 20.6149 16.2293 21.8857C17.0488 23.1566 18.3057 24.5698 20.0002 26.1253ZM20.0002 28.3337C17.7641 26.4309 16.0939 24.6635 14.9897 23.0316C13.8856 21.3996 13.3335 19.8892 13.3335 18.5003C13.3335 16.417 14.0036 14.7573 15.3439 13.5212C16.6842 12.285 18.2363 11.667 20.0002 11.667C21.7641 11.667 23.3161 12.285 24.6564 13.5212C25.9967 14.7573 26.6668 16.417 26.6668 18.5003C26.6668 19.8892 26.1147 21.3996 25.0106 23.0316C23.9064 24.6635 22.2363 26.4309 20.0002 28.3337Z" fill="#1C1B1B" fill-opacity="0.77"/>
</svg>
