<svg width="25" height="25" viewBox="0 0 25 25" fill="none" xmlns="http://www.w3.org/2000/svg">
<path d="M7.5 25C6.8125 25 6.22396 24.7552 5.73438 24.2656C5.24479 23.776 5 23.1875 5 22.5C5 21.8125 5.24479 21.224 5.73438 20.7344C6.22396 20.2448 6.8125 20 7.5 20C8.1875 20 8.77604 20.2448 9.26562 20.7344C9.75521 21.224 10 21.8125 10 22.5C10 23.1875 9.75521 23.776 9.26562 24.2656C8.77604 24.7552 8.1875 25 7.5 25ZM20 25C19.3125 25 18.724 24.7552 18.2344 24.2656C17.7448 23.776 17.5 23.1875 17.5 22.5C17.5 21.8125 17.7448 21.224 18.2344 20.7344C18.724 20.2448 19.3125 20 20 20C20.6875 20 21.276 20.2448 21.7656 20.7344C22.2552 21.224 22.5 21.8125 22.5 22.5C22.5 23.1875 22.2552 23.776 21.7656 24.2656C21.276 24.7552 20.6875 25 20 25ZM6.4375 5L9.4375 11.25H18.1875L21.625 5H6.4375ZM5.25 2.5H23.6875C24.1667 2.5 24.5312 2.71354 24.7812 3.14062C25.0312 3.56771 25.0417 4 24.8125 4.4375L20.375 12.4375C20.1458 12.8542 19.8385 13.1771 19.4531 13.4062C19.0677 13.6354 18.6458 13.75 18.1875 13.75H8.875L7.5 16.25H22.5V18.75H7.5C6.5625 18.75 5.85417 18.3385 5.375 17.5156C4.89583 16.6927 4.875 15.875 5.3125 15.0625L7 12L2.5 2.5H0V0H4.0625L5.25 2.5ZM9.4375 11.25H18.1875H9.4375Z" fill="#705D00"/>
</svg>
