<svg width="17" height="17" viewBox="0 0 17 17" fill="none" xmlns="http://www.w3.org/2000/svg">
<path d="M5.58333 9.10417L6.72917 9.875L8.33333 9.0625L9.9375 9.875L11.0417 9.14583L10.2083 7.5H6.375L5.58333 9.10417ZM2.6875 15H13.9583L11.7917 10.6458L10.0625 11.7917L8.33333 10.9375L6.60417 11.7917L4.83333 10.625L2.6875 15ZM0 16.6667L4.875 6.77083C5.01389 6.49306 5.21875 6.26736 5.48958 6.09375C5.76042 5.92014 6.05556 5.83333 6.375 5.83333H7.5V0H13.3333L12.5 1.66667L13.3333 3.33333H9.16667V5.83333H10.2083C10.5278 5.83333 10.8194 5.91667 11.0833 6.08333C11.3472 6.25 11.5556 6.47222 11.7083 6.75L16.6667 16.6667H0Z" fill="#005E97"/>
</svg>
