<svg width="23" height="31" viewBox="0 0 23 31" fill="none" xmlns="http://www.w3.org/2000/svg">
<path d="M18.018 21C19.268 21 20.3305 21.4375 21.2055 22.3125C22.0805 23.1875 22.518 24.25 22.518 25.5C22.518 26.75 22.0805 27.8125 21.2055 28.6875C20.3305 29.5625 19.268 30 18.018 30C17.068 30 16.2118 29.725 15.4493 29.175C14.6868 28.625 14.143 27.9 13.818 27H4.293L2.793 29.325C2.568 29.675 2.24925 29.8938 1.83675 29.9813C1.42425 30.0688 1.043 30 0.693 29.775C0.343 29.55 0.12425 29.2313 0.03675 28.8188C-0.05075 28.4062 0.018 28.025 0.243 27.675L6.168 18.6C4.368 17.775 2.893 16.5063 1.743 14.7937C0.593 13.0813 0.018 11.15 0.018 9H21.018C21.018 11.15 20.443 13.0813 19.293 14.7937C18.143 16.5063 16.668 17.775 14.868 18.6L15.7305 19.95C15.2055 20.2 14.7743 20.45 14.4368 20.7C14.0993 20.95 13.7305 21.3 13.3305 21.75L11.8305 19.425C11.6305 19.475 11.418 19.5 11.193 19.5C10.968 19.5 10.743 19.5 10.518 19.5C10.293 19.5 10.068 19.5 9.843 19.5C9.618 19.5 9.4055 19.475 9.2055 19.425L6.243 24H13.818C14.143 23.1 14.6868 22.375 15.4493 21.825C16.2118 21.275 17.068 21 18.018 21ZM18.018 27C18.443 27 18.7992 26.8563 19.0868 26.5688C19.3743 26.2812 19.518 25.925 19.518 25.5C19.518 25.075 19.3743 24.7188 19.0868 24.4312C18.7992 24.1437 18.443 24 18.018 24C17.593 24 17.2367 24.1437 16.9492 24.4312C16.6617 24.7188 16.518 25.075 16.518 25.5C16.518 25.925 16.6617 26.2812 16.9492 26.5688C17.2367 26.8563 17.593 27 18.018 27ZM10.518 16.5C12.018 16.5 13.3868 16.0875 14.6243 15.2625C15.8618 14.4375 16.793 13.35 17.418 12H3.618C4.268 13.35 5.2055 14.4375 6.4305 15.2625C7.6555 16.0875 9.018 16.5 10.518 16.5ZM6.618 7.5C6.743 6.775 6.72425 6.1625 6.56175 5.6625C6.39925 5.1625 6.0555 4.5875 5.5305 3.9375C5.0305 3.2875 4.69925 2.66875 4.53675 2.08125C4.37425 1.49375 4.3555 0.8 4.4805 0H5.9805C5.8555 0.725 5.87425 1.33125 6.03675 1.81875C6.19925 2.30625 6.543 2.875 7.068 3.525C7.593 4.175 7.9305 4.79375 8.0805 5.38125C8.2305 5.96875 8.243 6.675 8.118 7.5H6.618ZM10.368 7.5C10.493 6.775 10.4805 6.1625 10.3305 5.6625C10.1805 5.1625 9.843 4.5875 9.318 3.9375C8.793 3.3125 8.44925 2.70625 8.28675 2.11875C8.12425 1.53125 8.1055 0.825 8.2305 0H9.7305C9.6055 0.725 9.62425 1.33125 9.78675 1.81875C9.94925 2.30625 10.293 2.875 10.818 3.525C11.318 4.15 11.6493 4.75625 11.8118 5.34375C11.9743 5.93125 11.993 6.65 11.868 7.5H10.368ZM14.118 7.5C14.243 6.775 14.2305 6.1625 14.0805 5.6625C13.9305 5.1625 13.593 4.5875 13.068 3.9375C12.543 3.3125 12.1993 2.70625 12.0367 2.11875C11.8742 1.53125 11.8555 0.825 11.9805 0H13.4805C13.3555 0.725 13.3742 1.33125 13.5367 1.81875C13.6993 2.30625 14.043 2.875 14.568 3.525C15.068 4.15 15.3993 4.75625 15.5618 5.34375C15.7243 5.93125 15.743 6.65 15.618 7.5H14.118Z" fill="#005E97"/>
</svg>
