<svg width="14" height="17" viewBox="0 0 14 17" fill="none" xmlns="http://www.w3.org/2000/svg">
<path d="M1.66667 16.6667C1.20833 16.6667 0.815972 16.5035 0.489583 16.1771C0.163194 15.8507 0 15.4583 0 15V5C0 4.22222 0.236111 3.54167 0.708333 2.95833C1.18056 2.375 1.77778 1.98611 2.5 1.79167V0H5V1.66667H8.33333V0H10.8333V1.79167C11.5556 1.98611 12.1528 2.375 12.625 2.95833C13.0972 3.54167 13.3333 4.22222 13.3333 5V15C13.3333 15.4583 13.1701 15.8507 12.8438 16.1771C12.5174 16.5035 12.125 16.6667 11.6667 16.6667H1.66667ZM1.66667 15H11.6667V5C11.6667 4.54167 11.5035 4.14931 11.1771 3.82292C10.8507 3.49653 10.4583 3.33333 10 3.33333H3.33333C2.875 3.33333 2.48264 3.49653 2.15625 3.82292C1.82986 4.14931 1.66667 4.54167 1.66667 5V15ZM8.75 11.6667H10.4167V8.33333H2.91667V10H8.75V11.6667Z" fill="#005E97"/>
</svg>
