<svg width="40" height="40" viewBox="0 0 40 40" fill="none" xmlns="http://www.w3.org/2000/svg">
<rect width="40" height="40" rx="20" fill="#68AED9" fill-opacity="0.66"/>
<path d="M20.0103 28.3337C18.8644 28.3337 17.7846 28.1149 16.7707 27.6774C15.7568 27.2399 14.8714 26.6427 14.1144 25.8857C13.3575 25.1288 12.7603 24.2434 12.3228 23.2295C11.8853 22.2156 11.6665 21.1357 11.6665 19.9899C11.6665 18.8441 11.8853 17.7677 12.3228 16.7607C12.7603 15.7538 13.3575 14.8719 14.1144 14.1149C14.8714 13.358 15.7568 12.7607 16.7707 12.3232C17.7846 11.8857 18.8644 11.667 20.0103 11.667C21.1561 11.667 22.2325 11.8857 23.2394 12.3232C24.2464 12.7607 25.1283 13.358 25.8853 14.1149C26.6422 14.8719 27.2394 15.7538 27.6769 16.7607C28.1144 17.7677 28.3332 18.8441 28.3332 19.9899C28.3332 21.1357 28.1144 22.2156 27.6769 23.2295C27.2394 24.2434 26.6422 25.1288 25.8853 25.8857C25.1283 26.6427 24.2464 27.2399 23.2394 27.6774C22.2325 28.1149 21.1561 28.3337 20.0103 28.3337ZM19.9998 26.6253C20.3609 26.1253 20.6734 25.6045 20.9373 25.0628C21.2012 24.5212 21.4165 23.9448 21.5832 23.3337H18.4165C18.5832 23.9448 18.7984 24.5212 19.0623 25.0628C19.3262 25.6045 19.6387 26.1253 19.9998 26.6253ZM17.8332 26.292C17.5832 25.8337 17.3644 25.358 17.1769 24.8649C16.9894 24.3719 16.8332 23.8614 16.7082 23.3337H14.2498C14.6526 24.0281 15.1561 24.6323 15.7603 25.1462C16.3644 25.66 17.0554 26.042 17.8332 26.292ZM22.1665 26.292C22.9443 26.042 23.6353 25.66 24.2394 25.1462C24.8436 24.6323 25.3471 24.0281 25.7498 23.3337H23.2915C23.1665 23.8614 23.0103 24.3719 22.8228 24.8649C22.6353 25.358 22.4165 25.8337 22.1665 26.292ZM13.5415 21.667H16.3748C16.3332 21.3892 16.3019 21.1149 16.2811 20.8441C16.2603 20.5732 16.2498 20.292 16.2498 20.0003C16.2498 19.7087 16.2603 19.4274 16.2811 19.1566C16.3019 18.8857 16.3332 18.6114 16.3748 18.3337H13.5415C13.4721 18.6114 13.42 18.8857 13.3853 19.1566C13.3505 19.4274 13.3332 19.7087 13.3332 20.0003C13.3332 20.292 13.3505 20.5732 13.3853 20.8441C13.42 21.1149 13.4721 21.3892 13.5415 21.667ZM18.0415 21.667H21.9582C21.9998 21.3892 22.0311 21.1149 22.0519 20.8441C22.0728 20.5732 22.0832 20.292 22.0832 20.0003C22.0832 19.7087 22.0728 19.4274 22.0519 19.1566C22.0311 18.8857 21.9998 18.6114 21.9582 18.3337H18.0415C17.9998 18.6114 17.9686 18.8857 17.9478 19.1566C17.9269 19.4274 17.9165 19.7087 17.9165 20.0003C17.9165 20.292 17.9269 20.5732 17.9478 20.8441C17.9686 21.1149 17.9998 21.3892 18.0415 21.667ZM23.6248 21.667H26.4582C26.5276 21.3892 26.5797 21.1149 26.6144 20.8441C26.6491 20.5732 26.6665 20.292 26.6665 20.0003C26.6665 19.7087 26.6491 19.4274 26.6144 19.1566C26.5797 18.8857 26.5276 18.6114 26.4582 18.3337H23.6248C23.6665 18.6114 23.6978 18.8857 23.7186 19.1566C23.7394 19.4274 23.7498 19.7087 23.7498 20.0003C23.7498 20.292 23.7394 20.5732 23.7186 20.8441C23.6978 21.1149 23.6665 21.3892 23.6248 21.667ZM23.2915 16.667H25.7498C25.3471 15.9725 24.8436 15.3684 24.2394 14.8545C23.6353 14.3406 22.9443 13.9587 22.1665 13.7087C22.4165 14.167 22.6353 14.6427 22.8228 15.1357C23.0103 15.6288 23.1665 16.1392 23.2915 16.667ZM18.4165 16.667H21.5832C21.4165 16.0559 21.2012 15.4795 20.9373 14.9378C20.6734 14.3962 20.3609 13.8753 19.9998 13.3753C19.6387 13.8753 19.3262 14.3962 19.0623 14.9378C18.7984 15.4795 18.5832 16.0559 18.4165 16.667ZM14.2498 16.667H16.7082C16.8332 16.1392 16.9894 15.6288 17.1769 15.1357C17.3644 14.6427 17.5832 14.167 17.8332 13.7087C17.0554 13.9587 16.3644 14.3406 15.7603 14.8545C15.1561 15.3684 14.6526 15.9725 14.2498 16.667Z" fill="#1C1B1B" fill-opacity="0.77"/>
</svg>
