<svg width="27" height="32" viewBox="0 0 27 32" fill="none" xmlns="http://www.w3.org/2000/svg">
<path d="M13.5 31.5L9 27H3C2.175 27 1.46875 26.7062 0.88125 26.1187C0.29375 25.5312 0 24.825 0 24V3C0 2.175 0.29375 1.46875 0.88125 0.88125C1.46875 0.29375 2.175 0 3 0H24C24.825 0 25.5312 0.29375 26.1187 0.88125C26.7062 1.46875 27 2.175 27 3V24C27 24.825 26.7062 25.5312 26.1187 26.1187C25.5312 26.7062 24.825 27 24 27H18L13.5 31.5ZM3 22.275C4.35 20.95 5.91875 19.9062 7.70625 19.1437C9.49375 18.3812 11.425 18 13.5 18C15.575 18 17.5063 18.3812 19.2938 19.1437C21.0813 19.9062 22.65 20.95 24 22.275V3H3V22.275ZM13.5 15C14.95 15 16.1875 14.4875 17.2125 13.4625C18.2375 12.4375 18.75 11.2 18.75 9.75C18.75 8.3 18.2375 7.0625 17.2125 6.0375C16.1875 5.0125 14.95 4.5 13.5 4.5C12.05 4.5 10.8125 5.0125 9.7875 6.0375C8.7625 7.0625 8.25 8.3 8.25 9.75C8.25 11.2 8.7625 12.4375 9.7875 13.4625C10.8125 14.4875 12.05 15 13.5 15ZM6 24H21C21 23.925 21 23.8625 21 23.8125C21 23.7625 21 23.7 21 23.625C19.95 22.75 18.7875 22.0938 17.5125 21.6562C16.2375 21.2188 14.9 21 13.5 21C12.1 21 10.7625 21.2188 9.4875 21.6562C8.2125 22.0938 7.05 22.75 6 23.625C6 23.7 6 23.7625 6 23.8125C6 23.8625 6 23.925 6 24ZM13.5 12C12.875 12 12.3438 11.7812 11.9062 11.3438C11.4688 10.9062 11.25 10.375 11.25 9.75C11.25 9.125 11.4688 8.59375 11.9062 8.15625C12.3438 7.71875 12.875 7.5 13.5 7.5C14.125 7.5 14.6562 7.71875 15.0938 8.15625C15.5312 8.59375 15.75 9.125 15.75 9.75C15.75 10.375 15.5312 10.9062 15.0938 11.3438C14.6562 11.7812 14.125 12 13.5 12Z" fill="#005E97"/>
</svg>
