<svg width="21" height="21" viewBox="0 0 21 21" fill="none" xmlns="http://www.w3.org/2000/svg">
<path d="M18.75 3.125H9.25L8.33333 0H2.08333C0.9375 0 0 0.9375 0 2.08333V15.625C0 16.7708 0.9375 17.7083 2.08333 17.7083H9.375L10.4167 20.8333H18.75C19.8958 20.8333 20.8333 19.8958 20.8333 18.75V5.20833C20.8333 4.0625 19.8958 3.125 18.75 3.125ZM5.38542 13.1146C3.04167 13.1146 1.125 11.2083 1.125 8.85417C1.125 6.5 3.03125 4.59375 5.38542 4.59375C6.46875 4.59375 7.45833 4.97917 8.23958 5.70833L8.3125 5.77083L7.03125 7L6.96875 6.94792C6.66667 6.66667 6.15625 6.33333 5.38542 6.33333C4.02083 6.33333 2.90625 7.46875 2.90625 8.85417C2.90625 10.2396 4.02083 11.375 5.38542 11.375C6.8125 11.375 7.42708 10.4688 7.59375 9.85417H5.29167V8.23958H9.40625L9.41667 8.3125C9.45833 8.53125 9.46875 8.72917 9.46875 8.94792C9.46875 11.3958 7.79167 13.1146 5.38542 13.1146ZM11.6667 11.3333C12.0104 11.9583 12.4375 12.5625 12.9062 13.1042L12.3438 13.6562L11.6667 11.3333ZM12.4688 10.5417H11.4375L11.1146 9.45833H15.2708C15.2708 9.45833 14.9167 10.8229 13.6458 12.3125C13.1042 11.6667 12.7188 11.0312 12.4688 10.5417ZM19.7917 18.75C19.7917 19.3229 19.3229 19.7917 18.75 19.7917H11.4583L13.5417 17.7083L12.6979 14.8229L13.6562 13.8646L16.4479 16.6667L17.2083 15.9062L14.3854 13.1146C15.3229 12.0417 16.0521 10.7708 16.3854 9.45833H17.7083V8.375H13.9167V7.29167H12.8333V8.375H10.7917L9.5625 4.16667H18.75C19.3229 4.16667 19.7917 4.63542 19.7917 5.20833V18.75Z" fill="#E1E2E7"/>
</svg>
