<svg width="21" height="21" viewBox="0 0 21 21" fill="none" xmlns="http://www.w3.org/2000/svg">
<path d="M18.7505 3.125H9.25049L8.33382 0H2.08382C0.937988 0 0.000488281 0.9375 0.000488281 2.08333V15.625C0.000488281 16.7708 0.937988 17.7083 2.08382 17.7083H9.37549L10.4172 20.8333H18.7505C19.8963 20.8333 20.8338 19.8958 20.8338 18.75V5.20833C20.8338 4.0625 19.8963 3.125 18.7505 3.125ZM5.3859 13.1146C3.04215 13.1146 1.12549 11.2083 1.12549 8.85417C1.12549 6.5 3.03174 4.59375 5.3859 4.59375C6.46924 4.59375 7.45882 4.97917 8.24007 5.70833L8.31299 5.77083L7.03174 7L6.96924 6.94792C6.66715 6.66667 6.15674 6.33333 5.3859 6.33333C4.02132 6.33333 2.90674 7.46875 2.90674 8.85417C2.90674 10.2396 4.02132 11.375 5.3859 11.375C6.81299 11.375 7.42757 10.4687 7.59424 9.85417H5.29215V8.23958H9.40674L9.41715 8.3125C9.45882 8.53125 9.46924 8.72917 9.46924 8.94792C9.46924 11.3958 7.79215 13.1146 5.3859 13.1146ZM11.6672 11.3333C12.0109 11.9583 12.438 12.5625 12.9067 13.1042L12.3442 13.6562L11.6672 11.3333ZM12.4692 10.5417H11.438L11.1151 9.45833H15.2713C15.2713 9.45833 14.9172 10.8229 13.6463 12.3125C13.1047 11.6667 12.7192 11.0312 12.4692 10.5417ZM19.7922 18.75C19.7922 19.3229 19.3234 19.7917 18.7505 19.7917H11.4588L13.5422 17.7083L12.6984 14.8229L13.6567 13.8646L16.4484 16.6667L17.2088 15.9062L14.3859 13.1146C15.3234 12.0417 16.0526 10.7708 16.3859 9.45833H17.7088V8.375H13.9172V7.29167H12.8338V8.375H10.7922L9.56299 4.16667H18.7505C19.3234 4.16667 19.7922 4.63542 19.7922 5.20833V18.75Z" fill="#005E97"/>
</svg>
