<svg width="20" height="17" viewBox="0 0 20 17" fill="none" xmlns="http://www.w3.org/2000/svg">
<path d="M0 16.7V14.75C0.483333 14.75 0.895833 14.675 1.2375 14.525C1.57917 14.375 1.925 14.2125 2.275 14.0375C2.625 13.8625 3.0125 13.7042 3.4375 13.5625C3.8625 13.4208 4.3875 13.35 5.0125 13.35C5.6375 13.35 6.15417 13.4208 6.5625 13.5625C6.97083 13.7042 7.35 13.8625 7.7 14.0375C8.05 14.2125 8.4 14.375 8.75 14.525C9.1 14.675 9.51667 14.75 10 14.75C10.4833 14.75 10.9 14.675 11.25 14.525C11.6 14.375 11.95 14.2125 12.3 14.0375C12.65 13.8625 13.0333 13.7042 13.45 13.5625C13.8667 13.4208 14.3875 13.35 15.0125 13.35C15.6375 13.35 16.1583 13.4208 16.575 13.5625C16.9917 13.7042 17.375 13.8625 17.725 14.0375C18.075 14.2125 18.425 14.375 18.775 14.525C19.125 14.675 19.5333 14.75 20 14.75V16.7C19.3667 16.7 18.8375 16.625 18.4125 16.475C17.9875 16.325 17.6 16.1625 17.25 15.9875C16.9 15.8125 16.5583 15.6542 16.225 15.5125C15.8917 15.3708 15.4833 15.3 15 15.3C14.5333 15.3 14.1292 15.3708 13.7875 15.5125C13.4458 15.6542 13.1042 15.8125 12.7625 15.9875C12.4208 16.1625 12.0375 16.325 11.6125 16.475C11.1875 16.625 10.65 16.7 10 16.7C9.35 16.7 8.8125 16.625 8.3875 16.475C7.9625 16.325 7.57917 16.1625 7.2375 15.9875C6.89583 15.8125 6.55833 15.6542 6.225 15.5125C5.89167 15.3708 5.4875 15.3 5.0125 15.3C4.5375 15.3 4.12917 15.3708 3.7875 15.5125C3.44583 15.6542 3.1 15.8125 2.75 15.9875C2.4 16.1625 2.0125 16.325 1.5875 16.475C1.1625 16.625 0.633333 16.7 0 16.7ZM0 12.25V10.3C0.483333 10.3 0.895833 10.225 1.2375 10.075C1.57917 9.925 1.925 9.7625 2.275 9.5875C2.625 9.4125 3.0125 9.25417 3.4375 9.1125C3.8625 8.97083 4.3875 8.9 5.0125 8.9C5.6375 8.9 6.15417 8.97083 6.5625 9.1125C6.97083 9.25417 7.35 9.4125 7.7 9.5875C8.05 9.7625 8.4 9.925 8.75 10.075C9.1 10.225 9.51667 10.3 10 10.3C10.4833 10.3 10.9 10.225 11.25 10.075C11.6 9.925 11.95 9.7625 12.3 9.5875C12.65 9.4125 13.0333 9.25417 13.45 9.1125C13.8667 8.97083 14.3833 8.9 15 8.9C15.6333 8.9 16.1583 8.97083 16.575 9.1125C16.9917 9.25417 17.375 9.4125 17.725 9.5875C18.075 9.7625 18.425 9.925 18.775 10.075C19.125 10.225 19.5333 10.3 20 10.3V12.25C19.3667 12.25 18.8375 12.175 18.4125 12.025C17.9875 11.875 17.6 11.7125 17.25 11.5375C16.9 11.3625 16.5583 11.2042 16.225 11.0625C15.8917 10.9208 15.4833 10.85 15 10.85C14.5167 10.85 14.1042 10.9208 13.7625 11.0625C13.4208 11.2042 13.0792 11.3625 12.7375 11.5375C12.3958 11.7125 12.0167 11.875 11.6 12.025C11.1833 12.175 10.65 12.25 10 12.25C9.35 12.25 8.8125 12.175 8.3875 12.025C7.9625 11.875 7.57917 11.7125 7.2375 11.5375C6.89583 11.3625 6.55833 11.2042 6.225 11.0625C5.89167 10.9208 5.4875 10.85 5.0125 10.85C4.5375 10.85 4.12917 10.9208 3.7875 11.0625C3.44583 11.2042 3.1 11.3625 2.75 11.5375C2.4 11.7125 2.0125 11.875 1.5875 12.025C1.1625 12.175 0.633333 12.25 0 12.25ZM0 7.8V5.85C0.483333 5.85 0.895833 5.775 1.2375 5.625C1.57917 5.475 1.925 5.3125 2.275 5.1375C2.625 4.9625 3.0125 4.80417 3.4375 4.6625C3.8625 4.52083 4.3875 4.45 5.0125 4.45C5.6375 4.45 6.15417 4.52083 6.5625 4.6625C6.97083 4.80417 7.35 4.9625 7.7 5.1375C8.05 5.3125 8.4 5.475 8.75 5.625C9.1 5.775 9.51667 5.85 10 5.85C10.4833 5.85 10.9 5.775 11.25 5.625C11.6 5.475 11.95 5.3125 12.3 5.1375C12.65 4.9625 13.0333 4.80417 13.45 4.6625C13.8667 4.52083 14.3833 4.45 15 4.45C15.6333 4.45 16.1583 4.52083 16.575 4.6625C16.9917 4.80417 17.375 4.9625 17.725 5.1375C18.075 5.3125 18.425 5.475 18.775 5.625C19.125 5.775 19.5333 5.85 20 5.85V7.8C19.3667 7.8 18.8375 7.725 18.4125 7.575C17.9875 7.425 17.6 7.2625 17.25 7.0875C16.9 6.9125 16.5583 6.75417 16.225 6.6125C15.8917 6.47083 15.4833 6.4 15 6.4C14.5333 6.4 14.1292 6.47083 13.7875 6.6125C13.4458 6.75417 13.1042 6.9125 12.7625 7.0875C12.4208 7.2625 12.0375 7.425 11.6125 7.575C11.1875 7.725 10.65 7.8 10 7.8C9.35 7.8 8.8125 7.725 8.3875 7.575C7.9625 7.425 7.57917 7.2625 7.2375 7.0875C6.89583 6.9125 6.55833 6.75417 6.225 6.6125C5.89167 6.47083 5.4875 6.4 5.0125 6.4C4.5375 6.4 4.12917 6.47083 3.7875 6.6125C3.44583 6.75417 3.1 6.9125 2.75 7.0875C2.4 7.2625 2.0125 7.425 1.5875 7.575C1.1625 7.725 0.633333 7.8 0 7.8ZM0 3.35V1.4C0.483333 1.4 0.895833 1.325 1.2375 1.175C1.57917 1.025 1.925 0.8625 2.275 0.6875C2.625 0.5125 3.0125 0.354167 3.4375 0.2125C3.8625 0.0708333 4.3875 0 5.0125 0C5.6375 0 6.15417 0.0708333 6.5625 0.2125C6.97083 0.354167 7.35 0.5125 7.7 0.6875C8.05 0.8625 8.4 1.025 8.75 1.175C9.1 1.325 9.51667 1.4 10 1.4C10.4833 1.4 10.9 1.325 11.25 1.175C11.6 1.025 11.95 0.8625 12.3 0.6875C12.65 0.5125 13.0333 0.354167 13.45 0.2125C13.8667 0.0708333 14.3833 0 15 0C15.6333 0 16.1583 0.0708333 16.575 0.2125C16.9917 0.354167 17.375 0.5125 17.725 0.6875C18.075 0.8625 18.425 1.025 18.775 1.175C19.125 1.325 19.5333 1.4 20 1.4V3.35C19.3667 3.35 18.8375 3.275 18.4125 3.125C17.9875 2.975 17.6 2.8125 17.25 2.6375C16.9 2.4625 16.5583 2.30417 16.225 2.1625C15.8917 2.02083 15.4833 1.95 15 1.95C14.5333 1.95 14.1292 2.02083 13.7875 2.1625C13.4458 2.30417 13.1042 2.4625 12.7625 2.6375C12.4208 2.8125 12.0375 2.975 11.6125 3.125C11.1875 3.275 10.65 3.35 10 3.35C9.35 3.35 8.8125 3.275 8.3875 3.125C7.9625 2.975 7.57917 2.8125 7.2375 2.6375C6.89583 2.4625 6.55833 2.30417 6.225 2.1625C5.89167 2.02083 5.4875 1.95 5.0125 1.95C4.5375 1.95 4.12917 2.02083 3.7875 2.1625C3.44583 2.30417 3.1 2.4625 2.75 2.6375C2.4 2.8125 2.0125 2.975 1.5875 3.125C1.1625 3.275 0.633333 3.35 0 3.35Z" fill="#005E97"/>
</svg>
